<svg viewBox="196.664167916042 541.8 1616.1919040479759 425.99999999999994" xmlns:xlink="http://www.w3.org/1999/xlink" version="1.1" xmlns="http://www.w3.org/2000/svg" style="max-height: 500px" width="1616.1919040479759" height="425.99999999999994"><rect fill="#ffffff" height="1500" width="2000"/><g transform="matrix(0.75,0,0,0.75,249.090909090909,596.6138088866119)"><svg xmlns:xlink="http://www.w3.org/1999/xlink" xmlns="http://www.w3.org/2000/svg" width="2000" height="409" preserveAspectRatio="xMidYMid meet" data-background-color="#ffffff" viewBox="0 0 396 81"><g transform="matrix(1,0,0,1,0.2400000000000091,0.38186108080000736)" id="tight-bounds"><svg width="395.52" height="80.23627783839997" viewBox="0 0 395.52 80.23627783839997"><g><svg width="395.52" height="80.23627783839997" viewBox="0 0 564.2192903487756 114.45908106343353"><g><svg width="564.2192903487756" height="114.45908106343353" viewBox="0 0 564.2192903487756 114.45908106343353"><g id="textblocktransform"><svg id="textblock" width="564.2192903487756" height="114.45908106343353" viewBox="0 0 564.2192903487756 114.45908106343353"><g><svg width="564.2192903487756" height="70.38219099999999" viewBox="0 0 564.2192903487756 70.38219099999999"><g><svg><g/><g/></svg></g><g><svg><g><svg/></g><g/></svg></g><g id="text-0"><svg width="564.2192903487756" height="70.38219099999999" viewBox="0 0 564.2192903487756 70.38219099999999"><g transform="matrix(1,0,0,1,0,3.5301202160988616)"><svg data-palette-color="#729343" height="63.32195056780227" viewBox="4.65 -35.3 224.53 35.9514450867052" width="395.52"><path data-fill-palette-color="primary" class="wordmark-text-0" fill="#729343" transform="matrix(1,0,0,1,0,0)" opacity="1" d="M29.95 0L25.15 0 12.45-16.35 8.55-12.3 8.55 0 4.65 0 4.65-34 8.55-34 8.55-17.5 24.95-34.75 27.7-32.4 15.05-19.1 29.95 0ZM43.65 0.65L43.65 0.65Q40.05 0.7 37.45-0.98 34.85-2.65 33.47-5.53 32.1-8.4 32.1-12.2L32.1-12.2Q32.15-15.9 33.57-18.75 35-21.6 37.67-23.25 40.35-24.9 44-24.9L44-24.9Q47.65-24.9 50.25-23.3 52.85-21.7 54.25-18.85 55.65-16 55.65-12.05L55.65-12.05Q55.65-8.35 54.17-5.5 52.7-2.65 50.02-1 47.35 0.65 43.65 0.65ZM43.75-2.7L43.75-2.7Q46.25-2.7 48-3.95 49.75-5.2 50.67-7.3 51.6-9.4 51.6-12L51.6-12Q51.6-14.75 50.72-16.9 49.85-19.05 48.17-20.3 46.5-21.55 43.95-21.55L43.95-21.55Q41.5-21.55 39.75-20.3 38-19.05 37.07-16.95 36.15-14.85 36.1-12.25L36.1-12.25Q36.1-9.55 36.95-7.38 37.8-5.2 39.52-3.95 41.25-2.7 43.75-2.7ZM60.9 0L64.8 0 64.8-9.1 68.2-12.45 76.2 0 80.84 0 70.84-15.05 78.25-22.35 75.84-24.9 64.8-13.85 64.8-35.3 60.9-34.75 60.9 0ZM86.99-6.9L86.99-6.9Q86.99-8.8 88.27-10.23 89.54-11.65 91.99-11.65L91.99-11.65 98.34-11.65 98.34-6.1Q97.09-4.65 95.34-3.6 93.59-2.55 91.49-2.55L91.49-2.55Q89.94-2.55 88.94-3.2 87.94-3.85 87.47-4.88 86.99-5.9 86.99-6.9ZM84.89-22.75L86.04-19.8Q87.39-20.35 89.02-20.9 90.64-21.45 92.99-21.45L92.99-21.45Q95.89-21.45 97.12-19.8 98.34-18.15 98.34-15.65L98.34-15.65 98.34-14.3 92.09-14.3Q88.19-14.3 85.74-12.38 83.29-10.45 83.29-6.9L83.29-6.9Q83.29-3.7 85.34-1.55 87.39 0.6 91.64 0.6L91.64 0.6Q93.64 0.6 95.67-0.35 97.69-1.3 98.84-2.45L98.84-2.45 99.34 0 102.34 0 102.34-16.7Q102.34-19.1 101.14-20.95 99.94-22.8 97.82-23.85 95.69-24.9 92.89-24.9L92.89-24.9Q91.89-24.9 90.34-24.63 88.79-24.35 87.32-23.88 85.84-23.4 84.89-22.75L84.89-22.75ZM108.39 0L112.29 0 112.29-17.2Q113.49-18.45 114.89-19.43 116.29-20.4 117.77-21 119.24-21.6 120.44-21.6L120.44-21.6Q122.94-21.6 123.87-20 124.79-18.4 124.79-15.9L124.79-15.9 124.79 0 128.74 0 128.74-16.4Q128.74-18.9 127.94-20.83 127.14-22.75 125.47-23.88 123.79-25 121.14-25L121.14-25Q119.54-25 117.84-24.45 116.14-23.9 114.64-22.95 113.14-22 111.99-20.8L111.99-20.8 111.29-24.25 108.39-24.25 108.39 0ZM132.49-23.85L132.54-20.85 136.14-20.85 136.14 0 140.14 0 140.14-20.85 145.89-20.85 144.59-23.85 140.14-23.85 140.14-27.4Q140.14-29.2 140.91-30.38 141.69-31.55 143.54-31.55L143.54-31.55Q144.04-31.55 144.69-31.38 145.34-31.2 145.74-31.05L145.74-31.05 146.64-34.2Q146.29-34.45 145.69-34.65 145.09-34.85 144.39-34.98 143.69-35.1 142.99-35.1L142.99-35.1Q140.89-35.1 139.34-34.18 137.79-33.25 136.96-31.58 136.14-29.9 136.14-27.6L136.14-27.6 136.14-23.85 132.49-23.85ZM149.78 0L153.78 0 153.78-24.25 149.78-24.25 149.78 0ZM151.73-29.05L151.73-29.05Q152.83-29.05 153.63-29.83 154.44-30.6 154.44-31.75L154.44-31.75Q154.44-32.9 153.61-33.68 152.78-34.45 151.69-34.45L151.69-34.45Q150.53-34.45 149.78-33.68 149.03-32.9 149.03-31.75L149.03-31.75Q149.03-30.6 149.78-29.83 150.53-29.05 151.73-29.05ZM160.03 0L163.93 0 163.93-17.2Q165.13-18.45 166.53-19.43 167.93-20.4 169.41-21 170.88-21.6 172.08-21.6L172.08-21.6Q174.58-21.6 175.51-20 176.43-18.4 176.43-15.9L176.43-15.9 176.43 0 180.38 0 180.38-16.4Q180.38-18.9 179.58-20.83 178.78-22.75 177.11-23.88 175.43-25 172.78-25L172.78-25Q171.18-25 169.48-24.45 167.78-23.9 166.28-22.95 164.78-22 163.63-20.8L163.63-20.8 162.93-24.25 160.03-24.25 160.03 0ZM202.23-34.75L202.23-3.9 203.83 0 206.23 0 206.23-35.25 202.23-34.75ZM204.63-3.45L203.38-6.3Q201.98-4.6 200.38-3.65 198.78-2.7 196.48-2.7L196.48-2.7Q193.98-2.7 192.3-3.93 190.63-5.15 189.8-7.33 188.98-9.5 188.98-12.25L188.98-12.25Q188.98-14.9 189.83-16.98 190.68-19.05 192.38-20.3 194.08-21.55 196.53-21.55L196.53-21.55Q198.93-21.55 200.5-20.63 202.08-19.7 203.48-18.15L203.48-18.15 204.68-20.85Q203.68-22.1 202.3-23 200.93-23.9 199.43-24.4 197.93-24.9 196.63-24.9L196.63-24.9Q193.03-24.9 190.4-23.28 187.78-21.65 186.38-18.8 184.98-15.95 184.98-12.2L184.98-12.2Q184.98-8.4 186.33-5.5 187.68-2.6 190.28-0.98 192.88 0.65 196.53 0.65L196.53 0.65Q197.78 0.65 199.28 0.2 200.78-0.25 202.18-1.2 203.58-2.15 204.63-3.45L204.63-3.45ZM212.93-4.2L211.73-1.4Q212.73-0.75 214.13-0.3 215.53 0.15 217 0.4 218.48 0.65 219.48 0.65L219.48 0.65Q224.23 0.65 226.7-1.23 229.18-3.1 229.18-6.4L229.18-6.4Q229.18-8.4 227.98-9.85 226.78-11.3 224.93-12.35 223.08-13.4 221.08-14.05L221.08-14.05Q218.68-14.85 217.08-15.83 215.48-16.8 215.43-18.15L215.43-18.15Q215.43-19.7 216.85-20.7 218.28-21.7 220.53-21.7L220.53-21.7Q222.63-21.7 224.18-21.15 225.73-20.6 226.93-20L226.93-20 228.18-22.75Q227.28-23.4 225.88-23.88 224.48-24.35 223.05-24.63 221.63-24.9 220.58-24.9L220.58-24.9Q216.43-24.9 213.98-23.08 211.53-21.25 211.53-18L211.53-18Q211.53-16.1 212.73-14.73 213.93-13.35 215.75-12.43 217.58-11.5 219.48-10.85L219.48-10.85Q221.13-10.3 222.48-9.63 223.83-8.95 224.65-8.1 225.48-7.25 225.48-6.15L225.48-6.15Q225.48-5.05 224.73-4.23 223.98-3.4 222.65-2.98 221.33-2.55 219.53-2.55L219.53-2.55Q218.38-2.55 217.23-2.78 216.08-3 215-3.38 213.93-3.75 212.93-4.2L212.93-4.2Z"/></svg></g><g><svg id="dxe-0" data-fill-palette-color="accent" class="icon-dxe-0" width="154.96639034877563" height="70.38219099999999" y="0" x="409.25289999999995" viewBox="7.289999999999999 30.6041892329752 85.41999999999999 38.795810767024804" data-name="Layer 1" xmlns="http://www.w3.org/2000/svg"><path data-fill-palette-color="accent" fill="#096a2e" d="M91.71 57.69H86.11V44.06H89.7A1 1 0 0 0 90.41 42.35L81.94 33.88A11.2 11.2 0 0 0 66.11 33.88L57.64 42.35A1 1 0 0 0 58.35 44.06H61.94V57.69H52.37V50.15A3.45 3.45 0 0 0 54.83 46.86V42A3.46 3.46 0 0 0 47.92 42V46.83A3.45 3.45 0 0 0 50.38 50.12V57.66H39.28V44.06H42.87A1 1 0 0 0 43.58 42.35L35.11 33.88A11.21 11.21 0 0 0 19.28 33.88L10.81 42.35A1 1 0 0 0 11.52 44.06H15.1V57.69H8.29A1 1 0 0 0 8.29 59.69H91.71A1 1 0 0 0 91.71 57.69M49.92 46.86V42A1.46 1.46 0 0 1 52.83 42V46.83A1.46 1.46 0 1 1 49.92 46.83ZM67.52 35.29A9.2 9.2 0 0 1 80.52 35.29L87.29 42.06H60.76ZM20.69 35.29A9.2 9.2 0 0 1 33.69 35.29L40.46 42.06H13.93ZM26.24 57.68V47.86H30.42V57.69ZM32.42 57.68V46.86A1 1 0 0 0 31.42 45.86H25.24A1 1 0 0 0 24.24 46.86V57.69H17.1V44.06H37.28V57.69ZM73.07 57.68V47.86H77.25V57.69ZM79.25 57.68V46.86A1 1 0 0 0 78.25 45.86H72.07A1 1 0 0 0 71.07 46.86V57.69H63.94V44.06H84.11V57.69Z"/><path data-fill-palette-color="accent" fill="#096a2e" d="M21 61.06H16.1A1 1 0 1 0 16.1 63.06H21A1 1 0 0 0 21 61.06"/><path data-fill-palette-color="accent" fill="#096a2e" d="M29.2 64.23H25.2A1 1 0 0 0 25.2 66.23H29.2A1 1 0 1 0 29.2 64.23"/><path data-fill-palette-color="accent" fill="#096a2e" d="M45 63.54A1 1 0 0 0 44 62.54H39.55A1 1 0 0 0 39.55 64.54H44A1 1 0 0 0 45 63.54"/><path data-fill-palette-color="accent" fill="#096a2e" d="M51.37 67.4H44A1 1 0 0 0 44 69.4H51.39A1 1 0 1 0 51.39 67.4Z"/><path data-fill-palette-color="accent" fill="#096a2e" d="M66.58 62.54H59.82A1 1 0 0 0 59.82 64.54H66.58A1 1 0 0 0 66.58 62.54"/><path data-fill-palette-color="accent" fill="#096a2e" d="M72.91 67.4H68.48A1 1 0 0 0 68.48 69.4H72.91A1 1 0 0 0 72.91 67.4"/><path data-fill-palette-color="accent" fill="#096a2e" d="M89.7 62.54H87.49A1 1 0 0 0 87.49 64.54H89.7A1 1 0 0 0 89.7 62.54"/></svg></g></svg></g></svg></g><g transform="matrix(1,0,0,1,0,85.33098380224448)"><svg width="564.2192903487756" height="29.128097261189044" viewBox="0 0 564.2192903487756 29.128097261189044"><g transform="matrix(1,0,0,1,0,0)"><svg data-palette-color="#096a2e" height="29.128097261189044" viewBox="5 -38.4 755.44 39" width="564.2192903487756"><path id="text-1" data-fill-palette-color="secondary" class="slogan-text-1" fill="#096a2e" transform="matrix(1,0,0,1,0,0)" opacity="1" d="M5-8.15L5-37.7 10.4-38.4 10.4-8.25Q10.4-3.6 13.05-3.6L13.05-3.6Q13.7-3.6 15.45-3.95L15.45-3.95 16.1-0.25Q16.05-0.25 15.68-0.1 15.3 0.05 14.8 0.2L14.8 0.2Q13.55 0.6 11.75 0.6L11.75 0.6Q8.3 0.6 6.65-1.73 5-4.05 5-8.15L5-8.15ZM44.84-38L44.84-38Q46.09-38 46.94-37.23 47.79-36.45 47.79-34.9L47.79-34.9Q47.79-31.65 44.39-31.65L44.39-31.65Q43.19-31.65 42.39-32.43 41.59-33.2 41.59-34.7L41.59-34.7Q41.59-38 44.84-38ZM47.39 0L41.99 0 41.99-26.35 47.39-27.05 47.39 0ZM89.38 0L84.58 0 73.98-26 79.23-26.95 84.18-14.3Q86.88-7.05 86.98-6L86.98-6 87.33-6Q87.43-7 90.18-14.3L90.18-14.3 94.73-26.95 99.98-26 89.38 0ZM144.06-5.7L144.06-5.7 145.91-2.3Q145.06-1.5 142.31-0.45 139.56 0.6 136.41 0.6L136.41 0.6Q130.81 0.6 127.39-2.8 123.96-6.2 123.96-13L123.96-13Q123.96-16.75 125.16-19.63 126.36-22.5 128.26-24.1L128.26-24.1Q132.16-27.3 136.44-27.3 140.71-27.3 143.24-25.13 145.76-22.95 145.76-19.8L145.76-19.8Q145.76-15.65 141.81-13.03 137.86-10.4 129.16-10.4L129.16-10.4Q129.16-8.1 131.09-5.85 133.01-3.6 136.79-3.6 140.56-3.6 144.06-5.7ZM140.91-19.35L140.91-19.35Q140.91-20.85 139.79-21.98 138.66-23.1 136.61-23.1L136.61-23.1Q133.31-23.1 131.19-20.63 129.06-18.15 129.01-14.15L129.01-14.15Q140.91-14.15 140.91-19.35ZM209.24-8.15L209.24-37.7 214.64-38.4 214.64-8.25Q214.64-3.6 217.29-3.6L217.29-3.6Q217.94-3.6 219.69-3.95L219.69-3.95 220.34-0.25Q220.29-0.25 219.91-0.1 219.54 0.05 219.04 0.2L219.04 0.2Q217.79 0.6 215.99 0.6L215.99 0.6Q212.54 0.6 210.89-1.73 209.24-4.05 209.24-8.15L209.24-8.15ZM249.08-38L249.08-38Q250.33-38 251.18-37.23 252.03-36.45 252.03-34.9L252.03-34.9Q252.03-31.65 248.63-31.65L248.63-31.65Q247.43-31.65 246.63-32.43 245.83-33.2 245.83-34.7L245.83-34.7Q245.83-38 249.08-38ZM251.63 0L246.23 0 246.23-26.35 251.63-27.05 251.63 0ZM287.86-9.95L287.86 0 282.46 0 282.46-37.7 287.86-38.4 287.86-15.6 299.31-27 305.81-26.4 294.46-15.75 300.26-7.55Q303.01-3.7 305.96-3.6L305.96-3.6 305.96 0.25Q305.56 0.35 304.31 0.35L304.31 0.35Q299.26 0.35 295.96-4.5L295.96-4.5 290.61-12.5 287.86-9.95ZM350.05-5.7L350.05-5.7 351.9-2.3Q351.05-1.5 348.3-0.45 345.55 0.6 342.4 0.6L342.4 0.6Q336.8 0.6 333.38-2.8 329.95-6.2 329.95-13L329.95-13Q329.95-16.75 331.15-19.63 332.35-22.5 334.25-24.1L334.25-24.1Q338.15-27.3 342.43-27.3 346.7-27.3 349.23-25.13 351.75-22.95 351.75-19.8L351.75-19.8Q351.75-15.65 347.8-13.03 343.85-10.4 335.15-10.4L335.15-10.4Q335.15-8.1 337.08-5.85 339-3.6 342.78-3.6 346.55-3.6 350.05-5.7ZM346.9-19.35L346.9-19.35Q346.9-20.85 345.78-21.98 344.65-23.1 342.6-23.1L342.6-23.1Q339.3-23.1 337.18-20.63 335.05-18.15 335-14.15L335-14.15Q346.9-14.15 346.9-19.35ZM435.43-25.05L435.43-25.05 435.43-6.35Q435.43-4.6 435.83-4.03 436.23-3.45 437.78-3.45L437.78-3.45 437.98-0.3Q436.73 0.15 435.33 0.15L435.33 0.15Q431.43 0.15 430.68-3.4L430.68-3.4Q428.03 0.6 422.85 0.6 417.68 0.6 415.15-3.25 412.63-7.1 412.63-13.18 412.63-19.25 416.08-23.28 419.53-27.3 425.33-27.3L425.33-27.3Q427.68-27.3 430.8-26.58 433.93-25.85 435.43-25.05ZM418.33-12.75Q418.33-7.9 419.8-5.75 421.28-3.6 424.08-3.6 426.88-3.6 428.45-5.58 430.03-7.55 430.03-10.45L430.03-10.45 430.03-22.45Q428.08-23.1 425.58-23.1L425.58-23.1Q421.78-23.1 420.05-20.35 418.33-17.6 418.33-12.75ZM507.25-9.95L507.25 0 501.85 0 501.85-37.7 507.25-38.4 507.25-15.6 518.7-27 525.2-26.4 513.85-15.75 519.65-7.55Q522.4-3.7 525.35-3.6L525.35-3.6 525.35 0.25Q524.95 0.35 523.7 0.35L523.7 0.35Q518.65 0.35 515.35-4.5L515.35-4.5 510-12.5 507.25-9.95ZM562.44-27.3L562.44-27.3Q567.34-27.3 570.54-23.88 573.74-20.45 573.74-13.8 573.74-7.15 570.47-3.28 567.19 0.6 560.64 0.6L560.64 0.6Q555.74 0.6 552.54-2.88 549.34-6.35 549.34-13 549.34-19.65 552.62-23.48 555.89-27.3 562.44-27.3ZM555.04-12.98Q555.04-7.95 556.72-5.78 558.39-3.6 561.74-3.6 565.09-3.6 566.57-6.2 568.04-8.8 568.04-13.83 568.04-18.85 566.37-20.98 564.69-23.1 561.74-23.1L561.74-23.1Q557.99-23.1 556.52-20.55 555.04-18 555.04-12.98ZM607.38-9.95L607.38 0 601.98 0 601.98-37.7 607.38-38.4 607.38-15.6 618.83-27 625.33-26.4 613.98-15.75 619.78-7.55Q622.53-3.7 625.48-3.6L625.48-3.6 625.48 0.25Q625.08 0.35 623.83 0.35L623.83 0.35Q618.78 0.35 615.48-4.5L615.48-4.5 610.13-12.5 607.38-9.95ZM672.27-25.05L672.27-25.05 672.27-6.35Q672.27-4.6 672.67-4.03 673.07-3.45 674.62-3.45L674.62-3.45 674.82-0.3Q673.57 0.15 672.17 0.15L672.17 0.15Q668.27 0.15 667.52-3.4L667.52-3.4Q664.87 0.6 659.69 0.6 654.52 0.6 651.99-3.25 649.47-7.1 649.47-13.18 649.47-19.25 652.92-23.28 656.37-27.3 662.17-27.3L662.17-27.3Q664.52-27.3 667.64-26.58 670.77-25.85 672.27-25.05ZM655.17-12.75Q655.17-7.9 656.64-5.75 658.12-3.6 660.92-3.6 663.72-3.6 665.29-5.58 666.87-7.55 666.87-10.45L666.87-10.45 666.87-22.45Q664.92-23.1 662.42-23.1L662.42-23.1Q658.62-23.1 656.89-20.35 655.17-17.6 655.17-12.75ZM702.85 0L702.85-18.2Q702.85-22.7 701.95-26.3L701.95-26.3 706.15-26.85 707.1-24.35Q711.3-27.3 715.7-27.3L715.7-27.3Q724.8-27.3 724.8-17.5L724.8-17.5 724.8 0 719.4 0 719.4-16.5Q719.4-23.1 714.15-23.1L714.15-23.1Q711.1-23.1 708.25-20.95L708.25-20.95 708.25 0 702.85 0ZM757.49-38L757.49-38Q758.74-38 759.59-37.23 760.44-36.45 760.44-34.9L760.44-34.9Q760.44-31.65 757.04-31.65L757.04-31.65Q755.84-31.65 755.04-32.43 754.24-33.2 754.24-34.7L754.24-34.7Q754.24-38 757.49-38ZM760.04 0L754.64 0 754.64-26.35 760.04-27.05 760.04 0Z"/></svg></g></svg></g></svg></g></svg></g><g/></svg></g><defs/></svg><rect visibility="hidden" stroke="none" fill="none" height="80.23627783839997" width="395.52"/></g></svg></g></svg>