<svg xmlns="http://www.w3.org/2000/svg" version="1.1" xmlns:xlink="http://www.w3.org/1999/xlink" xmlns:svgjs="http://svgjs.dev/svgjs" width="128" height="128" viewBox="0 0 128 128"><g transform="matrix(0.8046875,0,0,0.8046875,12.221578124999994,39.48690177167239)"><svg viewBox="0 0 96 45" data-background-color="#ffffff" preserveAspectRatio="xMidYMid meet" height="60" width="128" xmlns="http://www.w3.org/2000/svg" xmlns:xlink="http://www.w3.org/1999/xlink"><g id="tight-bounds" transform="matrix(1,0,0,1,0.25950000000000273,1.152652903253184)"><svg viewBox="0 0 95.481 43.36528690993087" height="43.36528690993087" width="95.481"><g><svg viewBox="0 0 95.481 43.36528690993087" height="43.36528690993087" width="95.481"><g><svg viewBox="0 0 95.481 43.36528690993087" height="43.36528690993087" width="95.481"><g id="textblocktransform"><svg viewBox="0 0 95.481 43.36528690993087" height="43.36528690993087" width="95.481" id="textblock"><g><svg viewBox="0 0 95.481 43.36528690993087" height="43.36528690993087" width="95.481"><g><svg viewBox="0 0 95.481 43.36528690993087" height="43.36528690993087" width="95.481"><g><svg xmlns="http://www.w3.org/2000/svg" data-name="Layer 1" viewBox="7.289999999999999 30.6041892329752 85.41999999999999 38.795810767024804" x="0" y="0" height="43.36528690993087" width="95.481" class="icon-icon-0" data-fill-palette-color="accent" id="icon-0"><path d="M91.71 57.69H86.11V44.06H89.7A1 1 0 0 0 90.41 42.35L81.94 33.88A11.2 11.2 0 0 0 66.11 33.88L57.64 42.35A1 1 0 0 0 58.35 44.06H61.94V57.69H52.37V50.15A3.45 3.45 0 0 0 54.83 46.86V42A3.46 3.46 0 0 0 47.92 42V46.83A3.45 3.45 0 0 0 50.38 50.12V57.66H39.28V44.06H42.87A1 1 0 0 0 43.58 42.35L35.11 33.88A11.21 11.21 0 0 0 19.28 33.88L10.81 42.35A1 1 0 0 0 11.52 44.06H15.1V57.69H8.29A1 1 0 0 0 8.29 59.69H91.71A1 1 0 0 0 91.71 57.69M49.92 46.86V42A1.46 1.46 0 0 1 52.83 42V46.83A1.46 1.46 0 1 1 49.92 46.83ZM67.52 35.29A9.2 9.2 0 0 1 80.52 35.29L87.29 42.06H60.76ZM20.69 35.29A9.2 9.2 0 0 1 33.69 35.29L40.46 42.06H13.93ZM26.24 57.68V47.86H30.42V57.69ZM32.42 57.68V46.86A1 1 0 0 0 31.42 45.86H25.24A1 1 0 0 0 24.24 46.86V57.69H17.1V44.06H37.28V57.69ZM73.07 57.68V47.86H77.25V57.69ZM79.25 57.68V46.86A1 1 0 0 0 78.25 45.86H72.07A1 1 0 0 0 71.07 46.86V57.69H63.94V44.06H84.11V57.69Z" fill="#096a2e" data-fill-palette-color="accent"></path><path d="M21 61.06H16.1A1 1 0 1 0 16.1 63.06H21A1 1 0 0 0 21 61.06" fill="#096a2e" data-fill-palette-color="accent"></path><path d="M29.2 64.23H25.2A1 1 0 0 0 25.2 66.23H29.2A1 1 0 1 0 29.2 64.23" fill="#096a2e" data-fill-palette-color="accent"></path><path d="M45 63.54A1 1 0 0 0 44 62.54H39.55A1 1 0 0 0 39.55 64.54H44A1 1 0 0 0 45 63.54" fill="#096a2e" data-fill-palette-color="accent"></path><path d="M51.37 67.4H44A1 1 0 0 0 44 69.4H51.39A1 1 0 1 0 51.39 67.4Z" fill="#096a2e" data-fill-palette-color="accent"></path><path d="M66.58 62.54H59.82A1 1 0 0 0 59.82 64.54H66.58A1 1 0 0 0 66.58 62.54" fill="#096a2e" data-fill-palette-color="accent"></path><path d="M72.91 67.4H68.48A1 1 0 0 0 68.48 69.4H72.91A1 1 0 0 0 72.91 67.4" fill="#096a2e" data-fill-palette-color="accent"></path><path d="M89.7 62.54H87.49A1 1 0 0 0 87.49 64.54H89.7A1 1 0 0 0 89.7 62.54" fill="#096a2e" data-fill-palette-color="accent"></path></svg></g></svg></g></svg></g></svg></g></svg></g><g></g></svg></g><defs></defs></svg><rect width="95.481" height="43.36528690993087" fill="none" stroke="none" visibility="hidden"></rect></g></svg></g></svg>